<?xml version="1.0" standalone="no"?><!DOCTYPE svg PUBLIC "-//W3C//DTD SVG 1.1//EN" "http://www.w3.org/Graphics/SVG/1.1/DTD/svg11.dtd"><svg t="1642049488879" class="icon" viewBox="0 0 1024 1024" version="1.1" xmlns="http://www.w3.org/2000/svg" p-id="7817" xmlns:xlink="http://www.w3.org/1999/xlink" width="256" height="256"><defs><style type="text/css"></style></defs><path d="M953.833941 529.533328c-7.893784-41.971927-34.656311-72.975035-77.387531-89.653903-25.960255-10.135848-52.866045-13.072737-71.496357-13.699-9.017374-15.874549-23.39585-37.201274-43.264363-55.044664 8.589632-20.364817 14.471596-40.411385 17.61724-60.107983 10.050913-62.940494-8.18338-120.94149-54.198389-172.394349C625.518427 27.279297 481.617016 93.318362 425.62784 125.979226c-26.545586-15.530718-70.2776-37.172621-119.518071-45.702901-72.380494-12.537548-134.62207 7.640004-179.979094 58.357106C79.418794 190.866049 60.685127 249.826905 70.448492 313.87871c12.788258 83.886549 73.744561 174.065408 181.179432 268.024359 56.695257 49.584302 110.921275 86.50212 137.948839 103.948467-8.332782 11.455913-15.305591 25.297153-17.5804 41.119513-2.385327 16.594957-0.185218 41.995463 23.835871 68.75492 2.925632 3.261277 5.77861 6.40078 8.54256 9.444093 18.656919 20.536732 32.135908 35.373649 35.68985 50.969858 2.484587 10.903328 2.288113 28.428469-21.481244 67.491137-5.744841 9.44-2.749624 21.750373 6.691399 27.495214 3.25002 1.977028 6.837732 2.919493 10.382465 2.917446 6.752798 0 13.343913-3.419889 17.110703-9.609869 53.025681-87.138616 22.908756-120.289644-18.773576-166.171624-2.711761-2.986007-5.511527-6.067182-8.383948-9.266038-11.118222-12.386098-15.70468-24.234961-14.019295-36.220946 2.870374-20.423145 23.483854-38.984896 34.685987-47.007617 24.15412-15.09479 68.89716-44.467771 118.244055-83.825151 12.372795 41.283242 27.907607 76.95058 37.575804 97.439216-15.799848 7.844665-35.547611 21.419845-45.590338 43.098587-6.372128 13.752212-11.07422 36.285414 2.708692 65.527412 1.630127 3.456728 3.227508 6.795776 4.77577 10.031471 10.266831 21.450545 17.685801 36.950564 16.797571 50.180889-0.620124 9.236362-5.040806 23.177885-33.95944 49.221028-8.212032 7.394411-8.874111 20.045545-1.478677 28.256554 3.950985 4.38896 9.402137 6.619768 14.875802 6.619768 4.770653 0 9.55768-1.695618 13.382798-5.14109 30.905894-27.830859 45.434795-51.354622 47.107901-76.276221 1.592264-23.712051-8.705266-45.227064-20.62883-70.13843-1.514493-3.165086-3.078105-6.432503-4.673439-9.816576-5.836939-12.382005-6.700609-22.703071-2.64013-31.549553 7.977695-17.380856 33.511231-27.76639 42.676985-30.302143 0.695848-0.189312 1.370207-0.417509 2.02717-0.673335 17.898649-0.141216 60.271712-1.372254 108.546182-9.055237 86.589101-13.783934 147.492192-40.869826 181.018773-80.506569C952.751283 608.467075 961.764564 571.685357 953.833941 529.533328zM110.00337 307.806411c-7.974625-52.390207 7.058766-99.000781 45.956681-142.497435 28.949332-32.372292 65.591881-48.663326 109.255333-48.663326 10.915607 0 22.279423 1.019213 34.062793 3.060709 49.776683 8.623401 93.859691 32.901341 115.706255 46.606481 6.501064 4.077875 14.764262 4.077875 21.265326 0 21.846564-13.70514 65.928548-37.984103 115.706255-46.606481 58.909691-10.204409 107.131973 5.13802 143.31915 45.602617 38.115086 42.61968 52.67571 88.207971 44.515866 139.371234-24.091698 151.057391-239.187591 299.082726-309.86735 344.017124-0.379647 0.202615-0.763386 0.394996-1.134847 0.62524-0.660032 0.408299-1.986237 1.249457-3.804652 2.495844-2.697435 1.693572-5.120624 3.198855-7.238868 4.502547C366.204449 623.49842 134.342708 467.717448 110.00337 307.806411zM896.513444 612.988042c-26.692942 31.580253-80.690764 54.665017-156.155503 66.75845-42.246173 6.769171-80.515778 8.28264-99.155301 8.593725-8.801457-18.173918-26.678616-57.56302-39.746236-102.629425-1.091868-3.764744-3.206018-6.946202-5.936199-9.368368 67.184145-57.511855 116.460432-113.567545 147.430794-167.598112 16.473183 17.390066 27.484981 37.254485 32.101115 46.412053 3.403516 6.754844 10.320043 11.08036 17.86488 11.08036 0.11154 0 0.223081 0 0.333598 0 14.436804 0 42.526559 0.802272 68.644403 10.996448 30.042223 11.728112 47.251164 31.202653 52.613288 59.697637C920.178423 567.07434 914.292366 591.95296 896.513444 612.988042z" p-id="7818" fill="#d4237a"></path></svg>